<?xml version="1.0" encoding="UTF-8" standalone="no"?>
<!DOCTYPE svg PUBLIC "-//W3C//DTD SVG 1.1//EN" "http://www.w3.org/Graphics/SVG/1.1/DTD/svg11.dtd">
<svg width="100%" height="100%" viewBox="0 0 572 597" version="1.1" xmlns="http://www.w3.org/2000/svg" xmlns:xlink="http://www.w3.org/1999/xlink" xml:space="preserve" xmlns:serif="http://www.serif.com/" style="fill-rule:evenodd;clip-rule:evenodd;stroke-linejoin:round;stroke-miterlimit:1.41421;">
    <g transform="matrix(1,0,0,1,-696,-421)">
        <g>
            <g transform="matrix(1,0,0,1,121,3)">
                <ellipse cx="869" cy="772.877" rx="278" ry="241.877" style="fill:rgb(205,63,42);"/>
            </g>
            <g id="Layer1" transform="matrix(1.02502,0,0,1.08027,-25.6955,-54.0022)">
                <path d="M878,747C859.627,742.035 836.076,737.688 807,734C797.348,775.123 801.308,806.149 813,830C836.945,828.988 859.272,826.314 880,822C879.299,797.381 878.631,772.397 878,747Z" style="fill:rgb(56,56,56);"/>
                <path d="M1090,816C1072.93,834.308 1053.96,852.358 1032,870C1044.1,887.303 1058.37,903.879 1074,920C1103.82,899.655 1127.97,876.91 1147,852L1090,816Z" style="fill:rgb(56,56,56);"/>
                <path d="M933,746L894,747C892.699,772.816 893.039,798.147 895,823L934,825L933,746Z" style="fill:rgb(56,56,56);"/>
                <g transform="matrix(0.586345,-0.585362,0.585362,0.586345,-45.5324,904.552)">
                    <path d="M1020,753C1002.19,750.721 984.752,749.413 969.374,751.918C964.905,766.271 966.079,783.93 970,802C987.802,804.482 1005.92,804.644 1021.48,802.228C1025.15,787.472 1023.32,770.758 1020,753Z" style="fill:rgb(56,56,56);"/>
                </g>
                <path d="M1042,686C1015.57,683.618 988.202,683.715 960,686L959,724C984.688,723.032 1012.75,722.968 1043,724L1042,686Z" style="fill:rgb(56,56,56);"/>
                <path d="M1051,780C1033.27,798.935 1013.76,817.204 993,835L1021,860C1041.87,842.36 1061.17,824.141 1078,805L1051,780Z" style="fill:rgb(56,56,56);"/>
                <path d="M1050,609C1018.22,603.439 983.798,601.613 945,606C948.379,627.995 952.979,649.995 959,672C985.976,672.957 1012.98,673.635 1040,674C1045.44,651.99 1048.64,630.346 1050,609Z" style="fill:rgb(56,56,56);"/>
            </g>
            <g transform="matrix(0.980559,-0.145209,0.138451,0.934921,-572.532,247.204)">
                <path d="M1412,496L1239,543L1320,539L1206,621L1392,561L1374,656L1482,563L1649,621L1535,549L1652,537L1459,497" style="fill:rgb(57,87,46);"/>
            </g>
            <g transform="matrix(1.16443,-0.172438,0.177325,1.19743,-825.383,161.918)">
                <path d="M1412,496C1351.46,490.794 1300.64,503.963 1252.72,522.612C1282.11,532.158 1312.37,537.32 1344.47,533.352C1307.57,551.194 1276.03,575.499 1247.63,603.571C1324.82,604.777 1346.21,576.425 1392,561C1376.1,592.891 1374.63,624.455 1374,656C1410.4,627.852 1438.7,596.98 1450.66,560.613C1476.24,590.733 1514.95,607.557 1562.8,615.137C1556.94,592.511 1545.24,571.998 1522.02,555.657C1556.97,572.312 1594.04,572.518 1632.46,562.266C1585.2,523.467 1527.46,501.595 1459,497L1421,421L1363,421L1400,458" style="fill:rgb(57,87,46);"/>
            </g>
            <g transform="matrix(0.946306,-0.323273,0.323273,0.946306,-681.535,471.18)">
                <path d="M1254,743C1266.14,743 1270.66,766.87 1270.66,795.294C1270.66,823.718 1266.14,846 1254,846C1241.86,846 1232,822.924 1232,794.5C1232,766.076 1241.86,743 1254,743Z" style="fill:rgb(244,232,223);fill-opacity:0.3;"/>
            </g>
        </g>
    </g>
</svg>
